{
  "asset": {
    "version": "2.0",
    "generator": "THREE.GLTFExporter"
  },
  "scenes": [
    {
      "nodes": [
        3
      ],
      "name": "AuxScene"
    }
  ],
  "scene": 0,
  "nodes": [
    {
      "mesh": 0
    },
    {
      "mesh": 1
    },
    {
      "mesh": 2
    },
    {
      "children": [
        0,
        1,
        2
      ]
    }
  ],
  "bufferViews": [
    {
      "buffer": 0,
      "byteOffset": 0,
      "byteLength": 266328,
      "target": 34962,
      "byteStride": 12
    },
    {
      "buffer": 0,
      "byteOffset": 266328,
      "byteLength": 266328,
      "target": 34962,
      "byteStride": 12
    },
    {
      "buffer": 0,
      "byteOffset": 532656,
      "byteLength": 177552,
      "target": 34962,
      "byteStride": 8
    },
    {
      "buffer": 0,
      "byteOffset": 710208,
      "byteLength": 44388,
      "target": 34963
    },
    {
      "buffer": 0,
      "byteOffset": 754596,
      "byteLength": 134784,
      "target": 34962,
      "byteStride": 12
    },
    {
      "buffer": 0,
      "byteOffset": 889380,
      "byteLength": 134784,
      "target": 34962,
      "byteStride": 12
    },
    {
      "buffer": 0,
      "byteOffset": 1024164,
      "byteLength": 89856,
      "target": 34962,
      "byteStride": 8
    },
    {
      "buffer": 0,
      "byteOffset": 1114020,
      "byteLength": 22464,
      "target": 34963
    },
    {
      "buffer": 0,
      "byteOffset": 1136484,
      "byteLength": 86688,
      "target": 34962,
      "byteStride": 12
    },
    {
      "buffer": 0,
      "byteOffset": 1223172,
      "byteLength": 86688,
      "target": 34962,
      "byteStride": 12
    },
    {
      "buffer": 0,
      "byteOffset": 1309860,
      "byteLength": 57792,
      "target": 34962,
      "byteStride": 8
    },
    {
      "buffer": 0,
      "byteOffset": 1367652,
      "byteLength": 14448,
      "target": 34963
    }
  ],
  "buffers": [
    {
      "byteLength": 1382100,
      "uri": "data:application/octet-stream;base64,"
    }
  ],
  "accessors": [
    {
      "bufferView": 0,
      "componentType": 5126,
      "count": 22194,
      "max": [
        0.7322859168052673,
        1.1138319969177246,
        0.2613842189311981
      ],
      "min": [
        -0.7350910305976868,
        -1.25,
        -0.2613842487335205
      ],
      "type": "VEC3"
    },
    {
      "bufferView": 1,
      "componentType": 5126,
      "count": 22194,
      "max": [
        0.9999701380729675,
        0.9998875260353088,
        0.9996962547302246
      ],
      "min": [
        -0.9999082684516907,
        -1,
        -0.9992103576660156
      ],
      "type": "VEC3"
    },
    {
      "bufferView": 2,
      "componentType": 5126,
      "count": 22194,
      "max": [
        0.9978860020637512,
        0.9938380122184753
      ],
      "min": [
        0.0028880001045763493,
        0.003900999901816249
      ],
      "type": "VEC2"
    },
    {
      "bufferView": 3,
      "componentType": 5123,
      "count": 22194,
      "max": [
        22193
      ],
      "min": [
        0
      ],
      "type": "SCALAR"
    },
    {
      "bufferView": 4,
      "componentType": 5126,
      "count": 11232,
      "max": [
        0.8443888425827026,
        0.2671689987182617,
        0.18585005402565002
      ],
      "min": [
        -0.8443892002105713,
        -0.026291999965906143,
        -0.013944942504167557
      ],
      "type": "VEC3"
    },
    {
      "bufferView": 5,
      "componentType": 5126,
      "count": 11232,
      "max": [
        0.9996418356895447,
        0.9884291887283325,
        0.9997861385345459
      ],
      "min": [
        -0.9996392726898193,
        -0.9967814683914185,
        -0.9977694153785706
      ],
      "type": "VEC3"
    },
    {
      "bufferView": 6,
      "componentType": 5126,
      "count": 11232,
      "max": [
        0.988207995891571,
        0.9631940126419067
      ],
      "min": [
        0.017503999173641205,
        0.023699000477790833
      ],
      "type": "VEC2"
    },
    {
      "bufferView": 7,
      "componentType": 5123,
      "count": 11232,
      "max": [
        11231
      ],
      "min": [
        0
      ],
      "type": "SCALAR"
    },
    {
      "bufferView": 8,
      "componentType": 5126,
      "count": 7224,
      "max": [
        0.16269104182720184,
        1.25,
        0.21166299283504486
      ],
      "min": [
        -0.16180188953876495,
        0.7538859844207764,
        -0.18927599489688873
      ],
      "type": "VEC3"
    },
    {
      "bufferView": 9,
      "componentType": 5126,
      "count": 7224,
      "max": [
        0.9997544288635254,
        0.9978616833686829,
        0.9994399547576904
      ],
      "min": [
        -0.9997627139091492,
        -0.9994826316833496,
        -0.9995324611663818
      ],
      "type": "VEC3"
    },
    {
      "bufferView": 10,
      "componentType": 5126,
      "count": 7224,
      "max": [
        0.9945909976959229,
        0.9923290014266968
      ],
      "min": [
        0.007621000055223703,
        0.004947000183165073
      ],
      "type": "VEC2"
    },
    {
      "bufferView": 11,
      "componentType": 5123,
      "count": 7224,
      "max": [
        7223
      ],
      "min": [
        0
      ],
      "type": "SCALAR"
    }
  ],
  "materials": [
    {
      "pbrMetallicRoughness": {
        "baseColorFactor": [
          0.698039,
          0.698039,
          0.698039,
          1
        ],
        "metallicFactor": 0.5,
        "roughnessFactor": 0.5,
        "baseColorTexture": {
          "index": 0
        }
      },
      "doubleSided": true,
      "name": "mat_0-duke_body_d.jpg"
    },
    {
      "pbrMetallicRoughness": {
        "baseColorFactor": [
          0.698039,
          0.698039,
          0.698039,
          1
        ],
        "metallicFactor": 0.5,
        "roughnessFactor": 0.5,
        "baseColorTexture": {
          "index": 1
        }
      },
      "doubleSided": true,
      "name": "mat_1-duke_hand_d.jpg"
    },
    {
      "pbrMetallicRoughness": {
        "baseColorFactor": [
          0.698039,
          0.698039,
          0.698039,
          1
        ],
        "metallicFactor": 0.5,
        "roughnessFactor": 0.5,
        "baseColorTexture": {
          "index": 2
        }
      },
      "doubleSided": true,
      "name": "mat_2-duke_head_d.jpg"
    }
  ],
  "textures": [
    {
      "sampler": 0,
      "source": 0
    },
    {
      "sampler": 1,
      "source": 1
    },
    {
      "sampler": 2,
      "source": 2
    }
  ],
  "samplers": [
    {
      "magFilter": 9729,
      "minFilter": 9987,
      "wrapS": 10497,
      "wrapT": 10497
    },
    {
      "magFilter": 9729,
      "minFilter": 9987,
      "wrapS": 10497,
      "wrapT": 10497
    },
    {
      "magFilter": 9729,
      "minFilter": 9987,
      "wrapS": 10497,
      "wrapT": 10497
    }
  ],
  "images": [
    {
      "mimeType": "image/jpeg",
      "uri": "data:image/jpeg;base64,"
    },
    {
      "mimeType": "image/jpeg",
      "uri": "data:image/jpeg;base64,"
    },
    {
      "mimeType": "image/jpeg",
      "uri": "data:image/jpeg;base64,"
    }
  ],
  "meshes": [
    {
      "primitives": [
        {
          "mode": 4,
          "attributes": {
            "POSITION": 0,
            "NORMAL": 1,
            "TEXCOORD_0": 2
          },
          "indices": 3,
          "material": 0
        }
      ]
    },
    {
      "primitives": [
        {
          "mode": 4,
          "attributes": {
            "POSITION": 4,
            "NORMAL": 5,
            "TEXCOORD_0": 6
          },
          "indices": 7,
          "material": 1
        }
      ]
    },
    {
      "primitives": [
        {
          "mode": 4,
          "attributes": {
            "POSITION": 8,
            "NORMAL": 9,
            "TEXCOORD_0": 10
          },
          "indices": 11,
          "material": 2
        }
      ]
    }
  ]
}